<svg fill="none" height="466" viewBox="0 0 466 466" width="466" xmlns="http://www.w3.org/2000/svg">
<g clip-rule="evenodd" fill-rule="evenodd">
<path d="m239.494 453.998c-26.794 0-47.263-3.691-55.427-5.323-29.606-5.924-86.8356-17.372-128.2115-65.299-62.59828-72.51-52.85086-186.749-4.2955-262.157 3.8006-5.904 14.5682-23.3016 33.1129-42.2353.1268.2773.3594.5081.6694.6278 1.2228.4721 2.4424 1.003 3.6254 1.5784.1742.0846.3589.1249.5408.1249.4051 0 .7963-.1993 1.0264-.548.0262-.0394.05-.081.072-.1244.2992-.597.0503-1.3201-.5556-1.6148-1.2368-.6012-2.5117-1.1565-3.7893-1.6508 17.197-17.2227 40.791-35.4732 71.401-47.3591-11.938 7.0995-22.834 16.4263-31.54 27.2527-.194.0971-.341.2751-.394.4926-16.68 20.9927-25.124 47.537-17.045 74.408.735 2.445 1.625 4.99 2.666 7.571-.076.183-.155.364-.235.546-.268.612.019 1.321.639 1.585.159.066.322.098.484.098h.045c5.545 12.756 14.695 25.841 26.858 31.068 1.239.532 2.507.98 3.799 1.346.804.472 1.668.908 2.597 1.307 5.635 2.422 17.86 4.177 27.822 4.177 4.72 0 8.928-.393 11.692-1.297 22.852-7.473 37.872-27.925 25.444-50.608-3.98-7.263-9.132-13.898-12.568-21.426-3.438-7.5282-5.003-16.4628-1.5-23.961 6.588-14.0954 27.824-18.9835 42.625-18.9835.653 0 1.291.0095 1.918.0281.768.0229 1.53.0611 2.29.1145 8.504 4.0256 15.826 10.315 21.114 18.5293 11.73 18.2156 14.701 40.3726 12.985 61.5176-1.838 22.627-11.523 39.905-26.038 57.263-12.497 14.942-26.259 29.287-34.563 46.834-7.626 16.11-10.118 33.959-10.462 51.582-.068 3.416 1.101 39.085 1.174 48.92.012 1.389 1.146 2.511 2.555 2.527 4.725 1.879 18.183 5.001 19.344 5.014 7.36.082 28.209.311 35.882.396h.032c1.564 0 2.846-1.236 2.864-2.78.547-47.846 15.488-93.461 53.309-125.594 13.762-11.693 28.583-21.215 39.284-35.973 7.798-10.755 13.577-21.423 17.072-32.751l55.414-2.648c1.864-.09 3.537-.859 4.776-2.059 27.851 74.735 17.406 162.909-19.211 217.764-.466.016-.936.024-1.405.024-7.776 0-15.836-1.99-24.256-3.979-8.422-1.991-17.207-3.982-26.438-3.982-6.093 0-12.382.869-18.889 3.175-33.973 12.046-29.291 57.469-27.384 69.626.27 1.713 1.606 3.053 3.318 3.375-30.29 10.427-59.882 13.481-84.243 13.481zm-11.484-4.24c.163.06.328.12.495.18 4.058 1.444 18.955 1.482 24.642 1.482h.884c22.337 0 34.718-19.465 34.718-41.466 0-21.599-22.801-37.635-44.769-38.212-3.199-.802-6.549-1.228-10.001-1.228-22.337 0-40.443 17.836-40.443 39.837 0 20.003 14.968 36.564 34.474 39.407zm191.403-266.888c-2.007 0-4.002 1.348-4.252 3.74-3.727 35.642-31.749 48.097-93.568 108.759-65.119 63.9-16.19 133.808-9.461 142.741.462.612 1.149 1.012 1.917 1.114.136.019.269.027.401.027 1.836 0 3.242-1.719 2.764-3.541-3.862-14.759-10.41-66.696 69.482-114.075 72.425-42.952 50.54-108.39 36.493-136.433-.8-1.596-2.29-2.332-3.776-2.332zm-344.0148-15.405c-.0594 0-.1197.004-.1804.012-1.2836.188-2.5889.324-3.8803.404-.6744.041-1.1867.614-1.1439 1.279.0412.639.5793 1.13 1.2202 1.13.026 0 .0523-.001.0785-.003 1.3591-.085 2.7331-.227 4.0837-.424.3615-.053.6628-.256.8473-.536.1569-.238.2296-.53.1841-.833-.0897-.598-.6124-1.029-1.2092-1.029z" fill="#2676b2"/>
<path d="m368.183 118.602-54.44 1.563c-.533.016-.934.739-.889 1.61l.05 1.006c.043.863.505 1.547 1.033 1.533l54.444-1.459c.536-.014.936-.737.893-1.61l-.056-1.11c-.043-.863-.505-1.548-1.035-1.533z" fill="#4287f5"/>
<path d="m428.171 116.748-51.457 1.452c-.505.014-.88.737-.837 1.609l.052 1.005c.043.864.482 1.549.982 1.535l51.46-1.348c.506-.013.881-.736.838-1.609l-.056-1.11c-.043-.863-.482-1.548-.982-1.534z" fill="#4287f5"/>
<path d="m112.759 435.764s-1.029 5.741-1.534 11.424c-.198 2.221 1.54 4.15 3.803 4.243 7.683.316 24.12.928 30.017.669.886-.039 1.467-.933 1.138-1.746-.276-.68-.806-1.231-1.481-1.536l-27.15-12.29z" fill="#4287f5"/>
<path d="m111.916 432.389.827 6.867s4.755 2.182 8.004-.274l-1.97-7.653z" fill="#ff9eaa"/>
<path d="m112.537 303.275c-.358 1.793-1.919 89.494 7.599 128.794.154.643-.176 1.303-.794 1.552-1.46.587-4.323 1.438-7.752 1.553-1.061.033-2.015-.645-2.314-1.649-2.72-9.12-15.7563-54.807-17.4568-98.45-1.9003-48.766 0-1.66 0-1.66l1.1144-30.145z" fill="#1a478c"/>
<path d="m81.5281 438.757s-1.639 2.9-3.2257 10.602c-.2864 1.391.7002 2.722 2.1342 2.86 2.5371.247 6.443.562 9.5716.54 1.4424-.009 2.568-1.245 2.3942-2.656-.3465-2.812-1.4262-7.424-4.7616-11.019z" fill="#4287f5"/>
<path d="m80.0878 429.921 1.9329 10.385s1.9113 1.401 5.6919.386l-.9227-11.175z" fill="#ff9eaa"/>
<path d="m74.8669 305.968c-7.7839 46.271 1.6885 114.363 4.883 127.691.1955.816.8641 1.441 1.7037 1.577 1.426.233 3.7737.423 6.0884-.239.7973-.228 1.3575-.937 1.3901-1.753.4285-10.776-.3428-76.923 6.91-103.064.3674-1.324 1.1896-2.48 2.3258-3.275l14.0761-9.857 1.08-15.934z" fill="#1a478c"/>
<path d="m193.369 184.447c-2.29-2.726-5.191-1.436-5.191-1.436-3.432 14.283-21.431 25.863-39.924 31.524 1.208 5.065 3.989 13.634 9.887 20.366 30.688-16.995 35.228-50.454 35.228-50.454z" fill="#ff9eaa"/>
<path d="m192.813 185.141c.24.752-2.537 1.895-4.172-1.176-.056-1.471-.965-7.776-.072-8.975 4.755-6.386 13.973-14.391 13.973-14.391 1.559 1.516.276 3.003.276 3.003l-4.473 4.589c.936 1.665 2.077 3.07 2.61 5.084.406 1.525.158 3.156-.625 4.543-.783 1.394-1.855 3.205-2.867 4.623-1.916 2.682-4.65 2.7-4.65 2.7z" fill="#ff9eaa"/>
<path d="m196.387 171.169-4.076 3.403-1.279 3.388 3.634 3.971s1.222-6.723 2.129-8.178c.909-1.454.438-2.158-.408-2.584z" fill="#ff9eaa"/>
<path d="m124.465 218.295c-23.326-.381-49.0644 6.031-49.0644 6.031-6.9531 39.964-1.2158 86.06-1.2158 86.06 18.0589 4.664 38.4302-2.853 38.4302-2.853 3.002-16.704 17.006-63.713 17.006-63.713 11.398-1.394 20.786-4.633 28.518-8.916-5.897-6.732-8.678-15.301-9.886-20.366-8.247 2.525-16.592 3.873-23.788 3.757z" fill="#2d62b8"/>
<path d="m84.3475 246.573-8.9473-22.248s-21.7885 14.583-25.3718 33.071c4.117.3 11.6086 1.354 18.9413 5.001 1.6115-8.73 15.3778-15.824 15.3778-15.824z" fill="#2d62b8"/>
<path d="m100.45 284.734 13.351-45.925c.152-.521.603-.901 1.151-.965 2.418-.277 9.428-1.057 17.52-1.731 9.748-.813 21.069-1.471 27.834-.911.961.079 1.543 1.081 1.115 1.934-3.848 7.665-19.67 38.848-27.594 49.063-.262.34-.67.537-1.101.532l-30.977-.282c-.902-.01-1.546-.861-1.299-1.715z" fill="#4287f5"/>
<path d="m133.857 232.134 9.68-1.588c.514-.085.937.401.772.889l-.957 2.86c-.083.249-.304.429-.569.464l-9.314 1.227c-.481.063-.878-.37-.768-.835l.593-2.498c.064-.268.285-.473.563-.519z" fill="#89b8ff"/>
<path d="m126.608 240.21.798-4.092c.08-.41.423-.72.844-.762l19.552-1.954c.657-.067 1.184.528 1.031 1.161l-1.244 5.098c-.099.408-.46.704-.885.724l-19.104.947c-.622.032-1.109-.521-.992-1.122z" fill="#89b8ff"/>
<path d="m103.389 267.506s-24.4633 13.619-32.7175 1.991c-1.7139-2.415-2.1235-4.815-1.7014-7.102-7.3327-3.647-14.8243-4.701-18.9413-5.001-1.0803 5.574-.5089 11.503 2.8162 17.494 14.4584 26.051 53.782-1.44 53.782-1.44z" fill="#ff9eaa"/>
<path d="m103.674 273.641s-1.86-7.533-1.109-10.205c.75-2.673 2.203-6.108 7.048-5.345 4.844.764 10.559 2.775 10.559 2.775s-.288 3.481-3.969 2.357l2.282 1.741s-.325 2.786-3.436 1.297l2.123 2.308s-1.335 2.289-3.623.821c-2.289-1.468-3.387 5.159-9.875 4.251z" fill="#ff9eaa"/>
<path d="m100.839 199.636-7.4227 21.142c-.123.35.023.738.3524.918 2.0231 1.102 9.3123 4.286 18.0963-1.199.915-.572 1.538-1.505 1.678-2.562l2.403-18.299z" fill="#ff9eaa"/>
<path d="m116.988 180.058s8.15 15.112 7.106 21.218c-1.045 6.104-11.147 5.666-19.967.707l-6.1641-16.318z" fill="#ff9eaa"/>
<path d="m104.515 193.965c.359-.157.49-.589.277-.913-.654-.982-1.878-2.986-2.267-4.742 0 0-1.467-.923 3.729-2.148 5.194-1.225 12.939-3.126 14.568-7.481 1.588-4.246-2.584-14.924-9.238-6.415-.253.323-.748.33-1.001.006-1.092-1.399-3.959-4.302-7.941-2.542-3.7265 1.647-4.1464 4.337-4.0951 5.693.016.398-.3462.709-.7452.633-1.8832-.354-6.4041-.657-8.5142 3.91-1.7381 3.763-.6084 5.893.4203 6.935.3336.337.1874.893-.2697 1.03-1.238.375-2.8369 1.408-2.677 4.266.2215 3.949 4.705 3.602 5.9815 3.422.2093-.03.4198.041.5617.194 1.0944 1.194 6.0263 6.259 11.3627 6.87.463.054.821-.396.67-.83l-2.311-6.613c-.107-.308.042-.644.345-.776z" fill="#1a478c"/>
<path d="m105.445 194.912s-5.8026-3.921-6.2273-.619c-.4231 3.303 5.2263 4.785 8.0243 3.554z" fill="#ff9eaa"/>
<path d="m302.421 147.404-21.983 22.149 26.369-6.938z" fill="#d1e8ff"/>
<path d="m433.226 156.573-124.911 5.97c-3.208.154-5.894-2.366-5.894-5.529v-50.619c0-5.501 4.437-10.0082 10.019-10.1784l112.578-3.4313c8.383 0 15.179 6.6941 15.179 14.9517v41.629c0 3.848-3.067 7.019-6.971 7.207z" fill="#d1e8ff"/>
<path d="m422.946 103.917-99.881 3.681c-.981.036-1.753.677-1.72 1.427l.037.865c.032.742.842 1.312 1.811 1.277l99.885-3.593c.982-.034 1.755-.675 1.724-1.427l-.043-.953c-.032-.744-.842-1.313-1.813-1.277z" fill="#4287f5"/>
<path d="m414.007 128.823-99.882 3.662c-.98.036-1.751.699-1.718 1.476l.04.895c.032.769.843 1.361 1.813 1.326l99.886-3.571c.981-.035 1.753-.696 1.72-1.474l-.043-.988c-.034-.771-.843-1.363-1.816-1.326z" fill="#4287f5"/>
<path d="m425.677 139.244-111.347 4.14c-1.093.041-1.956.714-1.922 1.498l.039.905c.034.776.935 1.37 2.016 1.33l111.35-4.047c1.095-.039 1.958-.712 1.926-1.496l-.044-.998c-.034-.778-.936-1.372-2.018-1.332z" fill="#4287f5"/>
</g>
</svg>